[ConversionWorker] Logging FFmpeg output to: ffmpeg_logs\ffmpeg_conversion_t_wav_20250525_165012.log\n[ConversionWorker] Getting duration with command: ffprobe -v error -show_entries format=duration -of default=noprint_wrappers=1:nokey=1 Z:\AAAAA01\t.wav\n[ConversionWorker] Duration for t.wav: 11418446 ms\n[ConversionWorker] Starting FFmpeg for t.wav: ffmpeg -i Z:\AAAAA01\t.wav -b:a 256k -vn -y -loglevel error -stats -progress pipe:1 Z:\AAAAA01\t.mp3\n[ConversionWorker] FFmpeg process started. PID: 28428\n[STDOUT RAW] bitrate= 155.6kbits/s\n[STDOUT RAW] total_size=100844\n[STDOUT RAW] out_time_us=5185958\n[STDOUT RAW] out_time_ms=5185958\n[STDOUT RAW] out_time=00:00:05.185958\n[STDOUT RAW] dup_frames=0\n[STDOUT RAW] drop_frames=0\n[STDOUT RAW] speed=10.2x\n[STDOUT RAW] progress=continue\n[STDERR RAW] size=      98KiB time=00:00:05.18 bitrate= 155.6kbits/s speed=10.2x\n[STDOUT RAW] bitrate= 157.3kbits/s\n[STDOUT RAW] total_size=193964\n[STDOUT RAW] out_time_us=9865958\n[STDOUT RAW] out_time_ms=9865958\n[STDOUT RAW] out_time=00:00:09.865958\n[STDOUT RAW] dup_frames=0\n[STDOUT RAW] drop_frames=0\n[STDOUT RAW] speed= 9.6x\n[STDOUT RAW] progress=continue\n[STDERR RAW] size=     189KiB time=00:00:09.86 bitrate= 157.3kbits/s speed= 9.6x\n[STDOUT RAW] bitrate= 119.7kbits/s\n[STDOUT RAW] total_size=786432\n[STDOUT RAW] out_time_us=52561958\n[STDOUT RAW] out_time_ms=52561958\n[STDOUT RAW] out_time=00:00:52.561958\n[STDOUT RAW] dup_frames=0\n[STDOUT RAW] drop_frames=0\n[STDOUT RAW] speed=34.2x\n[STDOUT RAW] progress=continue\n[STDERR RAW] size=     768KiB time=00:00:52.56 bitrate= 119.7kbits/s speed=34.2x\n[STDOUT RAW] bitrate= 151.2kbits/s\n[STDOUT RAW] total_size=3407872\n[STDOUT RAW] out_time_us=180289958\n[STDOUT RAW] out_time_ms=180289958\n[STDOUT RAW] out_time=00:03:00.289958\n[STDOUT RAW] dup_frames=0\n[STDOUT RAW] drop_frames=0\n[STDOUT RAW] speed=87.6x\n[STDOUT RAW] progress=continue\n[STDERR RAW] size=    3328KiB time=00:03:00.28 bitrate= 151.2kbits/s speed=87.6x\n[STDOUT RAW] bitrate= 155.7kbits/s\n[STDOUT RAW] total_size=6029312\n[STDOUT RAW] out_time_us=309721958\n[STDOUT RAW] out_time_ms=309721958\n[STDOUT RAW] out_time=00:05:09.721958\n[STDOUT RAW] dup_frames=0\n[STDOUT RAW] drop_frames=0\n[STDOUT RAW] speed= 120x\n[STDOUT RAW] progress=continue\n[STDERR RAW] size=    5888KiB time=00:05:09.72 bitrate= 155.7kbits/s speed= 120x\n[STDOUT RAW] bitrate= 159.3kbits/s\n[STDOUT RAW] total_size=8650752\n[STDOUT RAW] out_time_us=434521958\n[STDOUT RAW] out_time_ms=434521958\n[STDOUT RAW] out_time=00:07:14.521958\n[STDOUT RAW] dup_frames=0\n[STDOUT RAW] drop_frames=0\n[STDOUT RAW] speed= 141x\n[STDOUT RAW] progress=continue\n[STDERR RAW] size=    8448KiB time=00:07:14.52 bitrate= 159.3kbits/s speed= 141x\n[STDOUT RAW] bitrate= 157.4kbits/s\n[STDOUT RAW] total_size=11010048\n[STDOUT RAW] out_time_us=559441958\n[STDOUT RAW] out_time_ms=559441958\n[STDOUT RAW] out_time=00:09:19.441958\n[STDOUT RAW] dup_frames=0\n[STDOUT RAW] drop_frames=0\n[STDOUT RAW] speed= 155x\n[STDOUT RAW] progress=continue\n[STDERR RAW] size=   10752KiB time=00:09:19.44 bitrate= 157.4kbits/s speed= 155x\n[STDOUT RAW] bitrate= 159.2kbits/s\n[STDOUT RAW] total_size=13631488\n[STDOUT RAW] out_time_us=685129958\n[STDOUT RAW] out_time_ms=685129958\n[STDOUT RAW] out_time=00:11:25.129958\n[STDOUT RAW] dup_frames=0\n[STDOUT RAW] drop_frames=0\n[STDOUT RAW] speed= 166x\n[STDOUT RAW] progress=continue\n[STDOUT RAW] bitrate= 158.1kbits/s\n[STDERR RAW] size=   13312KiB time=00:11:25.12 bitrate= 159.2kbits/s speed= 166x\n[STDOUT RAW] total_size=15990784\n[STDOUT RAW] out_time_us=809041958\n[STDOUT RAW] out_time_ms=809041958\n[STDOUT RAW] out_time=00:13:29.041958\n[STDOUT RAW] dup_frames=0\n[STDOUT RAW] drop_frames=0\n[STDOUT RAW] speed= 175x\n[STDOUT RAW] progress=continue\n[STDERR RAW] size=   15616KiB time=00:13:29.04 bitrate= 158.1kbits/s speed= 175x\n[STDOUT RAW] bitrate= 157.7kbits/s\n[STDOUT RAW] total_size=18350080\n[STDOUT RAW] out_time_us=930745958\n[STDOUT RAW] out_time_ms=930745958\n[STDOUT RAW] out_time=00:15:30.745958\n[STDOUT RAW] dup_frames=0\n[STDOUT RAW] drop_frames=0\n[STDOUT RAW] speed= 181x\n[STDOUT RAW] progress=continue\n[ConversionWorker] Cancel method called.\n[ConversionWorker] Cancellation requested during processing. Terminating FFmpeg.\n[ConversionWorker] Waiting for reader threads to join...\n[STDERR RAW] size=   17920KiB time=00:15:30.74 bitrate= 157.7kbits/s speed= 181x\n[ConversionWorker] Process poll is None after loop, waiting for process to terminate...\n[ConversionWorker] FFmpeg process ended. Return code: 1\n[ConversionWorker] Closing FFmpeg log file.\n